<svg xmlns="http://www.w3.org/2000/svg" xmlns:xlink="http://www.w3.org/1999/xlink" id="svg46" width="48" height="48" version="1">
 <defs id="defs14">
  <linearGradient id="linearGradient1686" x1="321.5" x2="366.5" y1="84" y2="84" gradientTransform="matrix(0,1,1,0,-60.00008,-321.0001)" gradientUnits="userSpaceOnUse" xlink:href="#linearGradient4338-7"/>
  <linearGradient id="linearGradient4338-7">
   <stop id="stop4340-2" style="stop-color:#2b898f;stop-opacity:1" offset="0"/>
   <stop id="stop4342-6" style="stop-color:#5bdbc1;stop-opacity:1" offset="1"/>
  </linearGradient>
  <linearGradient id="linearGradient1002" x1="16" x2="16" y1="304" y2="208" gradientTransform="matrix(0.078125,0,0,0.08680555,0.16669,0.777586)" gradientUnits="userSpaceOnUse" xlink:href="#linearGradient4245"/>
  <linearGradient id="linearGradient4245">
   <stop id="stop4247" style="stop-color:#d9d9d9;stop-opacity:1" offset="0"/>
   <stop id="stop4249" style="stop-color:#ececec;stop-opacity:1" offset="1"/>
  </linearGradient>
  <linearGradient id="linearGradient1004" x1="344" x2="344" y1="62" y2="106" gradientUnits="userSpaceOnUse" xlink:href="#linearGradient927"/>
  <linearGradient id="linearGradient927">
   <stop id="stop923" style="stop-color:#ffffff;stop-opacity:1" offset="0"/>
   <stop id="stop933" style="stop-color:#ffffff;stop-opacity:0.09803922" offset=".125"/>
   <stop id="stop931" style="stop-color:#ffffff;stop-opacity:0.09803922" offset=".925"/>
   <stop id="stop925" style="stop-color:#ffffff;stop-opacity:0.49803922" offset="1"/>
  </linearGradient>
  <clipPath id="clipPath994" clipPathUnits="userSpaceOnUse">
   <path id="path996" style="color:#000000;display:inline;overflow:visible;visibility:visible;fill:#cdcdcd;fill-opacity:1;fill-rule:nonzero;stroke:none;stroke-width:2;stroke-miterlimit:4;stroke-dasharray:none;stroke-opacity:1;marker:none;enable-background:accumulate" d="m 335.73108,62 c -8.82418,0 -9.77365,0.90635 -9.7304,9.74838 V 84 96.25162 c -0.0433,8.84203 0.90622,9.74838 9.7304,9.74838 h 16.53919 c 8.82418,0 9.7304,-0.90625 9.7304,-9.74838 V 84 71.74838 C 362.00067,62.90625 361.09445,62 352.27027,62 Z"/>
  </clipPath>
 </defs>
 <path id="path1020" style="color:#000000;font-style:normal;font-variant:normal;font-weight:normal;font-stretch:normal;font-size:medium;line-height:normal;font-family:sans-serif;font-variant-ligatures:normal;font-variant-position:normal;font-variant-caps:normal;font-variant-numeric:normal;font-variant-alternates:normal;font-feature-settings:normal;text-indent:0;text-align:start;text-decoration:none;text-decoration-line:none;text-decoration-style:solid;text-decoration-color:#000000;letter-spacing:normal;word-spacing:normal;text-transform:none;writing-mode:lr-tb;direction:ltr;text-orientation:mixed;dominant-baseline:auto;baseline-shift:baseline;text-anchor:start;white-space:normal;shape-padding:0;clip-rule:nonzero;display:inline;overflow:visible;visibility:visible;opacity:0.1;isolation:auto;mix-blend-mode:normal;color-interpolation:sRGB;color-interpolation-filters:linearRGB;solid-color:#000000;solid-opacity:1;vector-effect:none;fill:#000000;fill-opacity:1;fill-rule:nonzero;stroke:none;stroke-width:2;stroke-linecap:butt;stroke-linejoin:miter;stroke-miterlimit:4;stroke-dasharray:none;stroke-dashoffset:0;stroke-opacity:1;marker:none;color-rendering:auto;image-rendering:auto;shape-rendering:auto;text-rendering:auto;enable-background:accumulate" d="m 13.43293,0.499857 c -2.6791,0 -4.78864,0.05118 -6.52443,0.292969 C 5.1727,1.03461 3.75231,1.488125 2.71186,2.349466 1.67142,3.210808 1.12227,4.388937 0.83362,5.829935 0.54496,7.270934 0.48861,9.025276 0.50174,11.253763 V 23.99981 36.751953 c -0.013,2.225063 0.0435,3.978517 0.33188,5.417967 0.28865,1.441 0.8378,2.61913 1.87824,3.48047 1.04045,0.86134 2.46084,1.31486 4.19664,1.55664 C 8.64431,47.44882 10.75383,47.5 13.43293,47.5 h 21.13588 c 2.67913,0 4.78754,-0.0511 6.51976,-0.29297 1.73219,-0.24189 3.14824,-0.69694 4.18485,-1.55859 1.03662,-0.86165 1.58252,-2.03894 1.87353,-3.47852 C 47.43797,40.73035 47.5,38.979567 47.5,36.751953 V 23.99981 11.247904 C 47.5,9.02029 47.4379,7.269512 47.14695,5.829935 46.85594,4.390359 46.31003,3.213072 45.27341,2.351419 44.2368,1.489767 42.82075,1.034715 41.08855,0.792826 39.35635,0.550936 37.24792,0.499857 34.56881,0.499857 Z"/>
 <path id="path964" style="color:#000000;display:inline;overflow:visible;visibility:visible;fill:url(#linearGradient1686);fill-opacity:1;fill-rule:nonzero;stroke:none;stroke-width:1;marker:none;enable-background:accumulate" d="m 34.6649,0.49986 c 10.01116,0 11.88667,0.90635 11.83407,9.74838 V 22.99981 35.75162 C 46.55167,44.59365 44.67606,45.5 34.6649,45.5 H 13.3341 C 3.32544,45.5 1.50005,44.59375 1.50005,35.75162 V 22.99981 10.24824 c 0,-8.84213 1.82539,-9.74838 11.83406,-9.74838 z"/>
 <path id="path1004" style="color:#000000;display:inline;overflow:visible;visibility:visible;opacity:0.1;fill:#000000;fill-opacity:1;fill-rule:nonzero;stroke:none;stroke-width:23.99999809;stroke-linecap:butt;stroke-linejoin:miter;stroke-miterlimit:4;stroke-dasharray:none;stroke-dashoffset:0;stroke-opacity:1;marker:none;enable-background:accumulate" d="m 1.00002,18.999816 v 10 h 1.99999 v -10 z m 43.99999,0 v 10 h 2.00001 v -10 z"/>
 <path id="path1000" style="color:#000000;display:inline;overflow:visible;visibility:visible;opacity:1;fill:url(#linearGradient1002);fill-opacity:1;fill-rule:nonzero;stroke:none;stroke-width:23.99999809;stroke-linecap:butt;stroke-linejoin:miter;stroke-miterlimit:4;stroke-dasharray:none;stroke-dashoffset:0;stroke-opacity:1;marker:none;enable-background:accumulate" d="m 1.00002,17.999816 v 10 h 1.99999 v -10 z m 43.99999,0 v 10 h 2.00001 v -10 z"/>
 <path id="path908" style="display:inline;opacity:0.07999998;fill:#ffffff;fill-opacity:1;stroke:none;stroke-width:2;stroke-linecap:round;stroke-linejoin:round;stroke-miterlimit:4;stroke-dasharray:none;stroke-dashoffset:0;stroke-opacity:1;enable-background:new" d="m 1.55665,22.99981 v 0.171875 12.751953 c 0,8.842132 1.82728,9.748052 11.83594,9.748052 h 21.33008 c 10.01116,0 11.88668,-0.90602 11.83398,-9.748052 V 23.171685 22.99981 Z"/>
 <path id="path958" style="color:#000000;display:inline;overflow:visible;visibility:visible;opacity:0.4;fill:none;fill-opacity:1;fill-rule:nonzero;stroke:#000000;stroke-width:1;stroke-miterlimit:4;stroke-dasharray:none;stroke-opacity:1;marker:none;enable-background:accumulate" d="m 13.33518,0.499857 c -10.01116,0 -11.88667,0.90635 -11.83407,9.74838 V 22.99981 35.75162 C 1.44841,44.59365 3.32402,45.5 13.33518,45.5 h 21.3308 c 10.00866,0 11.83405,-0.90625 11.83405,-9.74838 V 22.99981 10.248237 c 0,-8.84213 -1.82539,-9.74838 -11.83406,-9.74838 z"/>
 <path id="path990" style="color:#000000;display:inline;overflow:visible;visibility:visible;opacity:0.7;fill:none;fill-opacity:1;fill-rule:nonzero;stroke:url(#linearGradient1004);stroke-width:1.81354535;stroke-miterlimit:4;stroke-dasharray:none;stroke-opacity:1;marker:none;enable-background:accumulate" transform="matrix(1.2161948,0,0,1,-394.37168,-61.00019)" d="m 335.73108,62 c -8.82418,0 -9.77365,0.90635 -9.7304,9.74838 V 84 96.25162 c -0.0433,8.84203 0.90622,9.74838 9.7304,9.74838 h 16.53919 c 8.82418,0 9.7304,-0.90625 9.7304,-9.74838 V 84 71.74838 C 362.00067,62.90625 361.09445,62 352.27027,62 Z" clip-path="url(#clipPath994)"/>
</svg>
