<svg xmlns="http://www.w3.org/2000/svg" id="svg47" version="1.1" viewBox="0 0 48 48">
 <defs id="defs7">
  <linearGradient id="bg" x2="0" y1="1" y2="47" gradientUnits="userSpaceOnUse">
   <stop id="stop2" style="stop-color:#eee" offset="0"/>
   <stop id="stop4" style="stop-color:#e4e4e4" offset="1"/>
  </linearGradient>
 </defs>
 <path id="path9" style="opacity:.05" d="m36.31 5c5.859 4.062 9.688 10.831 9.688 18.5 0 12.426-10.07 22.5-22.5 22.5-7.669 0-14.438-3.828-18.5-9.688 1.037 1.822 2.306 3.499 3.781 4.969 4.085 3.712 9.514 5.969 15.469 5.969 12.703 0 23-10.298 23-23 0-5.954-2.256-11.384-5.969-15.469-1.469-1.475-3.147-2.744-4.969-3.781zm4.969 3.781c3.854 4.113 6.219 9.637 6.219 15.719 0 12.703-10.297 23-23 23-6.081 0-11.606-2.364-15.719-6.219 4.16 4.144 9.883 6.719 16.219 6.719 12.703 0 23-10.298 23-23 0-6.335-2.575-12.06-6.719-16.219z"/>
 <path id="path11" style="opacity:.1" d="m41.28 8.781c3.712 4.085 5.969 9.514 5.969 15.469 0 12.703-10.297 23-23 23-5.954 0-11.384-2.256-15.469-5.969 4.113 3.854 9.637 6.219 15.719 6.219 12.703 0 23-10.298 23-23 0-6.081-2.364-11.606-6.219-15.719z"/>
 <path id="path13" style="opacity:.2" d="m31.25 2.375c8.615 3.154 14.75 11.417 14.75 21.13 0 12.426-10.07 22.5-22.5 22.5-9.708 0-17.971-6.135-21.12-14.75a23 23 0 0 0 44.875-7 23 23 0 0 0-16-21.875z"/>
 <path id="path15" style="fill:url(#bg)" d="m2.1016 17c-0.72658 2.2624-1.0982 4.6238-1.1016 7 0 12.703 10.297 23 23 23s23-10.297 23-23c-0.009063-2.3771-0.38659-4.7385-1.1191-7-1.8809-2-41.881-2-43.779 0z"/>
 <path id="path17" style="opacity:.1" d="m2.1016 17c-0.099957 0.3312-0.19243 0.66462-0.27734 1h44.373c-0.097854-0.3357-0.20335-0.66912-0.31641-1-1.8809-2-41.881-2-43.779 0z"/>
 <path id="path19" style="fill:#d64936" d="m24 1a23 23 0 0 0-21.898 16h43.779a23 23 0 0 0-21.881-16z"/>
 <path id="path21" style="opacity:.1" d="m40.03 7.531c3.712 4.084 5.969 9.514 5.969 15.469 0 12.703-10.297 23-23 23-5.954 0-11.384-2.256-15.469-5.969 4.178 4.291 10.01 6.969 16.469 6.969 12.703 0 23-10.298 23-23 0-6.462-2.677-12.291-6.969-16.469z"/>
 <circle id="circle23" style="fill:#7f2c20" cx="14" cy="12" r="2"/>
 <circle id="circle25" style="fill:#7f2c20" cx="19" cy="12" r="2"/>
 <rect id="rect27" style="fill:#dcdcdc" width="7" height="2" x="13" y="11" rx="1"/>
 <circle id="circle29" style="fill:#7f2c20" cx="29" cy="12" r="2"/>
 <circle id="circle31" style="fill:#7f2c20" cx="34" cy="12" r="2"/>
 <rect id="rect33" style="fill:#dcdcdc" width="7" height="2" x="28" y="11" rx="1"/>
</svg>
